<svg width="92" height="96" viewBox="0 0 92 96" fill="none" xmlns="http://www.w3.org/2000/svg">
<path d="M46 96C71.3706 96 91.9375 75.4331 91.9375 50.0625C91.9375 24.6919 71.3706 4.125 46 4.125C20.6294 4.125 0.0625 24.6919 0.0625 50.0625C0.0625 75.4331 20.6294 96 46 96Z" fill="#8387DB"/>
<path d="M16.8846 79.0582C16.369 79.0582 15.9471 78.6364 15.9471 78.1207V13.3588H9.74405C9.22842 13.3588 8.80655 13.7807 8.80655 14.2963V77.0237C11.3127 80.475 14.2849 83.5657 17.6348 86.199H69.4594C69.975 86.199 70.3969 85.7771 70.3969 85.2615V79.0584L16.8846 79.0582Z" fill="#FFAF10"/>
<path d="M12.3691 14.2963C12.3691 13.7807 12.7909 13.3588 13.3066 13.3588H9.74405C9.22842 13.3588 8.80655 13.7807 8.80655 14.2963V77.0237C9.90661 78.5387 11.0969 79.9841 12.3691 81.3521V14.2963Z" fill="#EF9614"/>
<path d="M23.0721 72.3086C22.5565 72.3086 22.1346 71.8868 22.1346 71.3711V6.74963H16.3531C15.8374 6.74963 15.4156 7.17151 15.4156 7.68713V78.6521C15.4156 79.1679 15.8374 79.5896 16.3531 79.5896H76.0688C76.5844 79.5896 77.0063 79.1679 77.0063 78.6521V72.3086H23.0721Z" fill="#FF9518"/>
<path d="M18.7906 78.6521V7.68713C18.7906 7.17151 19.2124 6.74963 19.7281 6.74963H16.3531C15.8374 6.74963 15.4156 7.17151 15.4156 7.68713V78.6521C15.4156 79.1679 15.8374 79.5896 16.3531 79.5896H19.7281C19.2124 79.5896 18.7906 79.1679 18.7906 78.6521Z" fill="#EF8318"/>
<path d="M83.1934 71.9025C83.1934 72.4181 82.7716 72.84 82.2559 72.84H22.5406C22.0249 72.84 21.6031 72.4181 21.6031 71.9025V0.9375C21.6031 0.421875 22.0249 0 22.5406 0H82.2559C82.7716 0 83.1934 0.421875 83.1934 0.9375V71.9025Z" fill="#D9EAFC"/>
<path d="M25.3238 71.9025V0.9375C25.3238 0.421875 25.7457 0 26.2613 0H22.5404C22.0247 0 21.6029 0.421875 21.6029 0.9375V71.9025C21.6029 72.4181 22.0247 72.84 22.5404 72.84H26.2613C25.7457 72.84 25.3238 72.4181 25.3238 71.9025Z" fill="#C3DDF4"/>
<path d="M75.8294 9.52386H62.7867C62.0099 9.52386 61.3804 8.89443 61.3804 8.11761C61.3804 7.34099 62.0099 6.71136 62.7867 6.71136H75.8294C76.6062 6.71136 77.2356 7.34099 77.2356 8.11761C77.2356 8.89443 76.606 9.52386 75.8294 9.52386Z" fill="#DB722C"/>
<path d="M75.8294 14.3049H62.7867C62.0099 14.3049 61.3804 13.6753 61.3804 12.8987C61.3804 12.1219 62.0099 11.4924 62.7867 11.4924H75.8294C76.6062 11.4924 77.2356 12.1219 77.2356 12.8987C77.2356 13.6753 76.606 14.3049 75.8294 14.3049Z" fill="#DB722C"/>
<path d="M75.8294 19.0858H62.7867C62.0099 19.0858 61.3804 18.4562 61.3804 17.6795C61.3804 16.9029 62.0099 16.2733 62.7867 16.2733H75.8294C76.6062 16.2733 77.2356 16.9029 77.2356 17.6795C77.2356 18.4563 76.606 19.0858 75.8294 19.0858Z" fill="#DB722C"/>
<path d="M75.8294 23.8669H62.7867C62.0099 23.8669 61.3804 23.2372 61.3804 22.4606C61.3804 21.6838 62.0099 21.0544 62.7867 21.0544H75.8294C76.6062 21.0544 77.2356 21.6838 77.2356 22.4606C77.2356 23.2372 76.606 23.8669 75.8294 23.8669Z" fill="#DB722C"/>
<path d="M51.5119 57.2402H29.5446C28.7678 57.2402 28.1384 56.6105 28.1384 55.8339C28.1384 55.0573 28.7678 54.4277 29.5446 54.4277H51.5117C52.2886 54.4277 52.918 55.0573 52.918 55.8339C52.9182 56.6105 52.2886 57.2402 51.5119 57.2402Z" fill="#52BBEF"/>
<path d="M51.5119 62.0211H29.5446C28.7678 62.0211 28.1384 61.3916 28.1384 60.6148C28.1384 59.8382 28.7678 59.2086 29.5446 59.2086H51.5117C52.2886 59.2086 52.918 59.8382 52.918 60.6148C52.9182 61.3916 52.2886 62.0211 51.5119 62.0211Z" fill="#52BBEF"/>
<path d="M51.5119 66.8021H29.5446C28.7678 66.8021 28.1384 66.1727 28.1384 65.3959C28.1384 64.6192 28.7678 63.9896 29.5446 63.9896H51.5117C52.2886 63.9896 52.918 64.6192 52.918 65.3959C52.9182 66.1725 52.2886 66.8021 51.5119 66.8021Z" fill="#52BBEF"/>
<path d="M75.8293 32.2102H55.8171C55.0403 32.2102 54.4108 31.5806 54.4108 30.804C54.4108 30.0274 55.0403 29.3977 55.8171 29.3977H75.8293C76.6061 29.3977 77.2356 30.0274 77.2356 30.804C77.2356 31.5806 76.6059 32.2102 75.8293 32.2102Z" fill="#FE3745"/>
<path d="M75.8293 36.9913H55.8171C55.0403 36.9913 54.4108 36.3617 54.4108 35.5851C54.4108 34.8084 55.0403 34.1788 55.8171 34.1788H75.8293C76.6061 34.1788 77.2356 34.8084 77.2356 35.5851C77.2356 36.3617 76.6059 36.9913 75.8293 36.9913Z" fill="#FE3745"/>
<path d="M75.8293 41.7722H55.8171C55.0403 41.7722 54.4108 41.1424 54.4108 40.3659C54.4108 39.5891 55.0403 38.9597 55.8171 38.9597H75.8293C76.6061 38.9597 77.2356 39.5891 77.2356 40.3659C77.2356 41.1424 76.6059 41.7722 75.8293 41.7722Z" fill="#FE3745"/>
<path d="M75.8293 46.553H55.8171C55.0403 46.553 54.4108 45.9234 54.4108 45.1468C54.4108 44.3702 55.0403 43.7405 55.8171 43.7405H75.8293C76.6061 43.7405 77.2356 44.3702 77.2356 45.1468C77.2356 45.9234 76.6059 46.553 75.8293 46.553Z" fill="#FE3745"/>
<path d="M27.0193 40.4541H32.5022C32.5022 37.4259 34.9568 34.971 37.9849 34.971V29.4885C31.9292 29.4885 27.0193 34.3978 27.0193 40.4541Z" fill="#FE3745"/>
<path d="M40.7657 26.7079V32.1905C43.7939 32.1905 46.2484 34.6451 46.2484 37.6732H51.7315C51.7315 31.617 46.8218 26.7079 40.7657 26.7079Z" fill="#91E0E8"/>
<path d="M43.4676 40.4541C43.4676 43.4818 41.0132 45.9368 37.9851 45.9368C34.957 45.9368 32.5024 43.4818 32.5024 40.4541H27.0193C27.0193 46.5099 31.9292 51.4196 37.9849 51.4196C44.041 51.4196 48.9507 46.5099 48.9507 40.4541H43.4676Z" fill="#FFAF10"/>
<path d="M33.3173 21.5858V8.49188C33.3173 8.18251 33.0642 7.92938 32.7548 7.92938H29.3457C29.0363 7.92938 28.7832 8.18251 28.7832 8.49188V21.5858H33.3173Z" fill="#FFAF10"/>
<path d="M40.6518 21.5858V12.0544C40.6518 11.745 40.3986 11.4919 40.0893 11.4919H36.6803C36.371 11.4919 36.1178 11.745 36.1178 12.0544V21.5858H40.6518Z" fill="#FE3745"/>
<path d="M47.986 21.5858V16.3669C47.986 16.0575 47.7329 15.8044 47.4235 15.8044H44.0146C43.7052 15.8044 43.4521 16.0575 43.4521 16.3669V21.5858H47.986Z" fill="#37C47A"/>
<path d="M55.3204 21.5858V8.49188C55.3204 8.18251 55.0673 7.92938 54.7579 7.92938H51.3488C51.0394 7.92938 50.7863 8.18251 50.7863 8.49188V21.5858H55.3204Z" fill="#91E0E8"/>
<path d="M69.1735 59.9452C69.1735 59.6351 69.4259 59.3827 69.736 59.3827H72.2787V53.0902C72.2787 52.5746 71.8569 52.1527 71.3412 52.1527H62.881C62.3654 52.1527 61.9435 52.5746 61.9435 53.0902V61.5504C61.9435 62.0661 62.3654 62.4879 62.881 62.4879H69.1735V59.9452Z" fill="#FE3745"/>
<path d="M75.8293 65.1011C75.8293 65.6167 75.4075 66.0386 74.8918 66.0386H69.736C69.2203 66.0386 68.7985 65.6167 68.7985 65.1011V59.9453C68.7985 59.4296 69.2203 59.0078 69.736 59.0078H74.8918C75.4075 59.0078 75.8293 59.4296 75.8293 59.9453V65.1011Z" fill="#37C47A"/>
<path d="M56.2898 23.8669H27.814C27.0372 23.8669 26.4077 23.2373 26.4077 22.4606C26.4077 21.6838 27.0372 21.0544 27.814 21.0544H56.2898C57.0666 21.0544 57.6961 21.6838 57.6961 22.4606C57.6961 23.2373 57.0666 23.8669 56.2898 23.8669Z" fill="#52BBEF"/>
</svg>
