<svg width="96" height="96" viewBox="0 0 96 96" fill="none" xmlns="http://www.w3.org/2000/svg">
<path d="M48 96C74.5097 96 96 74.5097 96 48C96 21.4903 74.5097 0 48 0C21.4903 0 0 21.4903 0 48C0 74.5097 21.4903 96 48 96Z" fill="#8387DB"/>
<path d="M58.4271 61.9042V53.7944H37.5731V61.9042L48.0001 71.1727L58.4271 61.9042Z" fill="#E6AF78"/>
<path d="M74.5497 65.6978L60.2134 62.3246C59.9969 62.2737 59.7978 62.1872 59.6114 62.0823L47.9999 68.8557L36.8412 61.7547C36.5523 62.0266 36.1938 62.2288 35.7865 62.3247L21.4503 65.698C19.3569 66.1905 17.8774 68.0585 17.8774 70.209V79.2828C17.8774 80.5626 18.9148 81.5999 20.1945 81.5999H75.805C77.0849 81.5999 78.1221 80.5625 78.1221 79.2828V70.209C78.1224 68.0583 76.6429 66.1903 74.5497 65.6978Z" fill="#EFF2FA"/>
<path d="M37.5731 53.7944V62.351C50.7083 67.0835 58.4271 55.2392 58.4271 55.2392V53.7943H37.5731V53.7944Z" fill="#D29B6E"/>
<path d="M32.9388 27.1478L33.9484 49.3589C34.0426 51.4338 35.06 53.358 36.7216 54.6042L41.512 58.1971C42.7153 59.0994 44.1787 59.5874 45.6828 59.5874H50.3171C51.8212 59.5874 53.2846 59.0995 54.4879 58.1971L59.2783 54.6042C60.9399 53.3579 61.9573 51.4339 62.0516 49.3589L63.0611 27.1478C63.061 27.1478 32.9388 27.1478 32.9388 27.1478Z" fill="#F0C087"/>
<path d="M44.5244 31.782C49.1587 31.782 56.1099 30.6234 57.7587 27.1477H32.9388L33.9484 49.3587C34.0426 51.4336 35.06 53.3577 36.7218 54.6041L41.5121 58.1969C42.7154 59.0992 44.1788 59.5872 45.6829 59.5872H48C45.6829 59.5872 41.0487 54.9529 41.0487 49.1603C41.0487 46.3271 41.0487 38.7333 41.0487 35.2576C41.0487 34.099 42.2072 31.782 44.5244 31.782Z" fill="#E6AF78"/>
<path d="M26.3831 74.0809L18.8757 67.337C18.2466 68.1335 17.8778 69.1359 17.8778 70.209V79.2828C17.8778 80.5626 18.9152 81.5999 20.1949 81.5999H28.3048V78.3903C28.3047 76.7462 27.6061 75.1794 26.3831 74.0809Z" fill="#E4EAF6"/>
<path d="M69.6172 74.0809L77.1246 67.337C77.7536 68.1335 78.1225 69.1359 78.1225 70.209V79.2828C78.1225 80.5626 77.0851 81.5999 75.8054 81.5999H67.6954V78.3903C67.6954 76.7462 68.3941 75.1794 69.6172 74.0809Z" fill="#E4EAF6"/>
<path d="M50.8965 81.5998H45.1036L45.8277 71.1726H50.1724L50.8965 81.5998Z" fill="#5B5D6E"/>
<path d="M50.8965 68.8555H45.1036V71.036C45.1036 71.7514 45.6835 72.3313 46.3989 72.3313H49.601C50.3165 72.3313 50.8963 71.7514 50.8963 71.036V68.8555H50.8965Z" fill="#515262"/>
<path d="M37.4105 59.3249L48.0002 68.8556C48.0002 68.8556 45.0345 70.3528 41.3747 73.3703C40.6198 73.9927 39.4778 73.7406 39.0729 72.8498L34.0976 61.9043L35.6715 59.5435C36.0632 58.9555 36.8853 58.8524 37.4105 59.3249Z" fill="#E4EAF6"/>
<path d="M58.5898 59.3249L48 68.8556C48 68.8556 50.9658 70.3528 54.6255 73.3703C55.3805 73.9927 56.5225 73.7406 56.9274 72.8498L61.9027 61.9043L60.3287 59.5435C59.937 58.9555 59.1148 58.8524 58.5898 59.3249Z" fill="#E4EAF6"/>
<path d="M55.0237 19.4724L56.1098 27.1479C61.0677 28.1395 61.7823 35.9202 61.8852 38.1426C61.9038 38.5459 62.0326 38.9353 62.2514 39.2746L64.1431 42.2091C64.1431 42.2091 63.4956 37.3575 66.4602 34.0991C66.4603 34.0991 67.4783 14.8381 55.0237 19.4724Z" fill="#785550"/>
<path d="M65.3051 41.7149L63.9972 46.9467C63.8422 47.5668 63.2852 48.0017 62.6459 48.0017C61.9433 48.0017 61.3508 47.4786 61.2637 46.7816L60.5947 41.4305C60.4157 39.9982 61.5323 38.7332 62.9758 38.7332H62.9769C64.5382 38.7333 65.6838 40.2003 65.3051 41.7149Z" fill="#F0C087"/>
<path d="M34.0494 17.3966L35.763 18.5672C28.0151 24.2876 29.4632 34.0992 29.4632 34.0992C31.7803 36.4163 31.7803 42.2092 31.7803 42.2092L34.0974 39.8921C34.0974 39.8921 33.2032 33.1986 37.573 30.6236C41.628 28.2341 45.1761 29.4651 48.7966 29.4651C58.4995 29.4651 61.215 25.8083 60.7443 21.3551C60.5007 19.0509 56.9777 14.2511 48.0002 14.4037C44.3772 14.4653 37.5733 15.5623 34.0494 17.3966Z" fill="#694B4B"/>
<path d="M33.3734 28.4513C33.3734 28.4513 32.1424 23.5998 35.763 18.5674C28.0151 24.2878 29.4632 34.0994 29.4632 34.0994C31.7803 36.4165 31.7803 42.2093 31.7803 42.2093L34.0974 39.8922C34.0974 39.8922 33.2032 33.1987 37.573 30.6237C41.628 28.2342 45.1761 29.4652 48.7966 29.4652C50.3746 29.4652 51.7497 29.3595 52.9746 29.1784C45.5022 29.4288 41.0974 23.7687 33.3734 28.4513Z" fill="#5A4146"/>
<path d="M30.6949 41.7149L32.0028 46.9467C32.1578 47.5668 32.7149 48.0017 33.3542 48.0017C34.0568 48.0017 34.6492 47.4786 34.7364 46.7816L35.4054 41.4305C35.5844 39.9982 34.4677 38.7332 33.0242 38.7332H33.0232C31.4618 38.7333 30.3163 40.2003 30.6949 41.7149Z" fill="#E6AF78"/>
<path d="M63.0613 79.2825H54.9514C54.3115 79.2825 53.7928 79.8012 53.7928 80.441V81.5996H64.2199V80.441C64.2199 79.8013 63.701 79.2825 63.0613 79.2825Z" fill="#E4EAF6"/>
</svg>
