<svg width="96" height="96" viewBox="0 0 96 96" fill="none" xmlns="http://www.w3.org/2000/svg">
<path d="M87.9588 52.6332C87.9588 76.5842 68.2668 96 43.9787 96C38.0203 96 32.3404 94.8318 27.1597 92.7143C12.9997 86.9304 2.56994 74.0624 0.413716 58.5937C0.139638 56.6454 0 54.6554 0 52.6332C0 28.6808 19.6898 9.26501 43.9787 9.26501C68.2668 9.26501 87.9588 28.6808 87.9588 52.6332Z" fill="#8387DB"/>
<path d="M43.9787 9.26501C41.6531 9.26501 39.3706 9.44446 37.1431 9.78723C58.1861 13.0253 74.2883 30.9733 74.2883 52.6332C74.2883 74.2902 58.1876 92.2375 37.146 95.477C39.3728 95.8198 41.6538 96 43.9779 96C68.2668 96 87.9588 76.5842 87.9588 52.6332C87.9588 28.6808 68.2668 9.26501 43.9787 9.26501Z" fill="#7570D6"/>
<path d="M93.4493 49.4274L68.3359 65.8256C66.5466 66.9946 64.3792 67.4582 62.2609 67.1242C60.1373 66.791 57.9648 67.248 56.171 68.4192L52.81 70.6157L33.9886 43.2575L38.6063 23.5861C38.965 22.0546 39.1426 20.5026 39.1426 18.9565C39.1426 14.9567 37.9564 11.0089 35.6813 7.62002C35.122 6.78653 34.8546 5.8439 34.8546 4.91299C34.8546 3.32217 35.6375 1.76138 37.0844 0.816552C39.0341 -0.457131 41.6182 -0.220559 43.2968 1.38491L46.2886 4.24209C49.7098 7.51529 52.3488 11.5004 54.0059 15.9081L55.6281 20.2148L72.3334 9.33096C75.0014 7.58926 78.6105 8.35098 80.3143 11.0456C81.9573 13.6413 81.1135 17.0712 78.525 18.7609C78.4938 18.7814 78.4916 18.8144 78.502 18.8393C78.5169 18.8664 78.5481 18.8847 78.583 18.87C79.2433 18.6195 79.934 18.498 80.6189 18.498C81.7122 18.498 82.7959 18.8085 83.7228 19.3996C84.3616 19.8068 84.9276 20.3481 85.374 21.0131C86.2363 22.2978 86.4933 23.8044 86.2111 25.2048C85.7684 27.4108 84.1425 28.5475 83.8231 28.7614C83.7689 28.7988 83.754 28.8727 83.7919 28.9284C83.7919 28.9299 83.7942 28.9321 83.7956 28.9321C83.8313 28.9819 83.9041 28.9958 83.9561 28.9635C84.4114 28.8544 84.8749 28.8024 85.3383 28.8024C86.4696 28.8024 87.5948 29.1196 88.5515 29.7209C89.1985 30.1288 89.7704 30.6679 90.2131 31.3285C91.9496 33.914 91.2321 37.3989 88.6072 39.112C88.5426 39.1552 88.478 39.1984 88.4134 39.2394C88.3762 39.2687 88.3651 39.3156 88.3844 39.3486C88.3881 39.3566 88.397 39.3654 88.4052 39.3691C88.4342 39.3918 88.4802 39.394 88.5181 39.3654C90.1484 38.8176 91.9229 39.0666 93.3505 39.9785C94.0078 40.3945 94.5909 40.9548 95.0521 41.6418C96.7894 44.2294 96.0712 47.7143 93.4493 49.4274Z" fill="#FDD7BD"/>
<path d="M53.0499 75.8078L42.4553 82.7263L27.1597 92.7143C12.9997 86.9297 2.56994 74.0639 0.413715 58.5937L18.1641 47.0024L28.9698 39.9455C30.2139 39.1325 31.8925 39.4702 32.717 40.6992L53.8142 72.1106C54.6387 73.3396 54.2963 74.9919 53.0499 75.8078Z" fill="#87DBFF"/>
<path d="M53.0499 75.8078L42.4553 82.7263L18.1641 47.0024L28.9698 39.9455C30.2139 39.1325 31.8925 39.4702 32.717 40.6992L53.8142 72.1098C54.6387 73.3396 54.2963 74.9919 53.0499 75.8078Z" fill="#6FC7FF"/>
<path d="M83.7228 19.3988L75.3661 23.8088C74.1806 24.4328 72.7107 24.1069 71.9137 23.0426L78.502 18.8393C78.5169 18.8664 78.5481 18.8847 78.583 18.87C79.2433 18.6195 79.934 18.498 80.6189 18.498C81.7129 18.498 82.7959 18.8085 83.7228 19.3988Z" fill="#FAC5AA"/>
<path d="M88.5515 29.7209L80.3767 34.0312C79.1913 34.6574 77.7214 34.3322 76.9236 33.268L83.5119 29.0639L83.7964 28.9321C83.832 28.9819 83.9048 28.9958 83.9568 28.9636C84.4121 28.8544 84.8756 28.8024 85.3391 28.8024C86.4703 28.8024 87.5956 29.1196 88.5515 29.7209Z" fill="#FAC5AA"/>
<path d="M93.3512 39.9785L86.1509 43.7768C84.967 44.4001 83.4978 44.0749 82.6978 43.0107L88.4052 39.3691C88.4349 39.3918 88.481 39.394 88.5181 39.3647C90.1484 38.8176 91.9229 39.0666 93.3512 39.9785Z" fill="#FAC5AA"/>
</svg>
