<svg width="15" height="17" viewBox="0 0 15 17" fill="none" xmlns="http://www.w3.org/2000/svg">
<path d="M13.951 3.86099L8.10603 0.179289C7.9174 0.06133 7.7101 0 7.5 0C7.2899 0 7.0826 0.06133 6.89397 0.179289L1.049 3.86099C0.734264 4.05567 0.468924 4.35946 0.283392 4.73756C0.0978605 5.11565 -0.0003559 5.55274 9.69058e-07 5.99872V13.8791C9.69058e-07 15.1972 0.851117 16.2695 1.89743 16.2695H13.1026C14.1489 16.2695 15 15.1972 15 13.8791V5.99872C15.0004 5.55274 14.9021 5.11565 14.7166 4.73756C14.5311 4.35946 14.2657 4.05567 13.951 3.86099ZM7.37879 1.40097C7.41652 1.37738 7.45798 1.36512 7.5 1.36512C7.54202 1.36512 7.58348 1.37738 7.62121 1.40097L13.2924 4.97212L7.53348 8.60046C7.49576 8.62405 7.4543 8.63632 7.41228 8.63632C7.37026 8.63632 7.3288 8.62405 7.29107 8.60046L1.61886 5.02889L7.37879 1.40097Z" fill="white"/>
</svg>
