<svg width="220" height="180" viewBox="0 0 220 180" fill="none" xmlns="http://www.w3.org/2000/svg">
<path d="M80.3842 153.123V195.224C80.3842 198.165 82.275 200.771 85.0748 201.696C85.7749 201.923 86.4929 202.032 87.2021 202.032C89.3292 202.032 91.3837 201.034 92.693 199.255L117.356 165.741L80.3842 153.123Z" fill="#424585"/>
<path d="M216.151 -5.48742C214.06 -6.96706 211.315 -7.16676 209.041 -5.97761L4.50579 100.682C2.08778 101.944 0.660552 104.522 0.860533 107.237C1.06963 109.96 2.87858 112.283 5.45119 113.164L62.3122 132.571L183.407 29.1794L89.7018 141.912L184.997 174.437C185.706 174.673 186.452 174.8 187.197 174.8C188.434 174.8 189.66 174.463 190.743 173.81C192.47 172.758 193.642 170.987 193.942 168.999L218.942 1.06649C219.314 -1.47519 218.241 -3.99873 216.151 -5.48742Z" fill="#424585"/>
</svg>
