<svg width="15" height="18" viewBox="0 0 15 18" fill="none" xmlns="http://www.w3.org/2000/svg">
<path d="M14.9649 13.157C14.7901 12.9406 14.173 12.3009 13.0386 11.4546C11.8958 10.6009 11.0531 10.0686 10.8113 9.94452C10.79 9.93353 10.7665 9.92951 10.7434 9.93287C10.7203 9.93623 10.6984 9.94685 10.6801 9.96358C10.2906 10.3165 9.63505 10.9648 9.59989 10.9998C9.37288 11.2258 9.37288 11.2258 9.18705 11.1554C8.86025 11.0309 7.84505 10.4044 6.96042 9.37409C6.0758 8.34374 5.50893 7.13478 5.40179 6.75541C5.34051 6.53906 5.34051 6.53906 5.53572 6.27525C5.56585 6.23439 6.12402 5.47252 6.42771 5.02038C6.44211 4.99909 6.45125 4.97364 6.45414 4.94677C6.45703 4.91989 6.45356 4.89261 6.44411 4.86785C6.3373 4.58653 5.87926 3.60754 5.14464 2.27952C4.41538 0.961619 3.86559 0.244498 3.67942 0.0413844C3.66234 0.0226501 3.64122 0.0096175 3.6183 0.00365979C3.59538 -0.00229792 3.5715 -0.000960062 3.54917 0.00753223C2.89842 0.26741 2.27055 0.599011 1.67412 0.997807C1.09836 1.38677 0.553257 1.83403 0.0451724 2.33439C0.0274364 2.35191 0.0141393 2.37471 0.00670697 2.40035C-0.000725311 2.42598 -0.00201233 2.45349 0.00298384 2.47991C0.0729634 2.8589 0.407459 4.441 1.44543 6.63245C2.5045 8.86903 3.23845 10.0149 4.79374 11.8161C6.34902 13.6173 7.36624 14.5216 9.29285 15.7523C11.1786 16.9585 12.5407 17.3476 12.8662 17.4282C12.8889 17.4339 12.9127 17.4324 12.9348 17.4238C12.9569 17.4152 12.9765 17.3997 12.9917 17.3792C13.4222 16.7887 13.807 16.1553 14.1415 15.4862C14.4846 14.793 14.77 14.0634 14.9937 13.3072C15.0008 13.2814 15.0019 13.2539 14.9969 13.2275C14.9918 13.2011 14.9808 13.1768 14.9649 13.157Z" fill="white"/>
</svg>
