<svg width="35" height="35" viewBox="0 0 35 35" fill="none" xmlns="http://www.w3.org/2000/svg">
<path d="M34.9878 6.71348C34.9878 12.0309 32.6697 15.8941 32.5722 16.0552C32.3758 16.3761 32.036 16.5522 31.6853 16.5522C31.5011 16.5522 31.3156 16.5034 31.1477 16.4018C30.6575 16.104 30.5005 15.4662 30.797 14.976C30.8187 14.9408 32.9107 11.4243 32.9107 6.71348C32.9107 4.027 31.1639 2.07714 28.7564 2.07714C26.4653 2.07714 24.6021 3.94034 24.6021 6.23278C24.6021 7.20907 25.0747 9.68972 25.2561 10.5631C25.3739 11.125 25.0124 11.6748 24.4505 11.7926C23.8885 11.9077 23.3388 11.5489 23.2223 10.9883C23.1506 10.6457 22.5223 7.60039 22.5223 6.23278C22.5223 2.79615 25.3184 0 28.7564 0C32.3081 0 34.9878 2.88552 34.9878 6.71348ZM28.9324 8.34784C29.3454 11.7994 29.9439 18.525 29.2561 19.2102L14.1636 34.304C13.2361 35.2329 11.729 35.2329 10.8001 34.3027L0.708205 24.2121C-0.220687 23.2846 -0.220687 21.7775 0.708205 20.8486L15.802 5.75615C16.0417 5.51648 18.6523 5.50565 21.588 5.65866C21.5717 5.85229 21.5297 6.03509 21.5297 6.23278C21.5297 6.98565 21.6963 8.15285 21.871 9.17924C21.5636 9.63556 21.3835 10.184 21.3835 10.7757C21.3835 12.3518 22.6617 13.6301 24.2379 13.6301C25.814 13.6301 27.0923 12.3518 27.0923 10.7757C27.0923 9.80482 26.6061 8.94905 25.8655 8.4345C25.7138 7.53134 25.5919 6.65932 25.5919 6.23278C25.5919 6.14071 25.6109 6.0554 25.619 5.96468C25.9806 6.00259 26.3367 6.04186 26.6738 6.08384C28.6684 6.32892 28.6887 6.32486 28.9324 8.34784ZM20.8879 19.6435C20.6537 18.9922 20.2637 18.2109 19.4174 17.3118L20.5629 16.1649L19.2874 14.8907L18.0511 16.1283C16.3965 14.995 14.6903 15.087 13.5326 16.2448C12.2706 17.5068 12.5685 19.1086 13.4947 20.9705C14.1311 22.2596 14.2475 23.0016 13.7533 23.4958C13.2455 24.0036 12.4263 23.7829 11.6829 23.0409C10.838 22.1959 10.3424 21.1519 10.096 20.3056L8.18132 21.4403C8.40338 22.2067 9.00188 23.2995 9.84682 24.1986L8.59837 25.4484L9.87255 26.7239L11.2144 25.3834C12.9842 26.6318 14.7689 26.4639 15.9266 25.3062C17.1114 24.1187 17.2157 22.7917 16.2001 20.6834C15.496 19.1723 15.3267 18.4302 15.7438 18.0145C16.1094 17.6489 16.7593 17.5447 17.6056 18.391C18.544 19.3293 18.8554 20.2406 19.0247 20.7227L20.8879 19.6435Z" fill="#424585"/>
</svg>
