<svg width="35" height="35" viewBox="0 0 35 35" fill="none" xmlns="http://www.w3.org/2000/svg">
<path d="M24.7383 13.8635C27.7847 11.7478 31.9045 8.88651 32.28 2.05078H35V0H0V2.05078H2.72004C3.09553 8.88651 7.2153 11.7478 10.2617 13.8635C12.3053 15.2827 13.4615 16.1513 13.4615 17.5C13.4615 18.8487 12.3053 19.7173 10.2617 21.1365C7.2153 23.2522 3.09553 26.1135 2.72004 32.9492H0V35H35V32.9492H32.28C31.9045 26.1135 27.7847 23.2522 24.7383 21.1365C22.6947 19.7173 21.5385 18.8487 21.5385 17.5C21.5385 16.1513 22.6947 15.2827 24.7383 13.8635ZM16.1538 25.1862C15.7381 25.2515 15.3273 25.3466 14.9264 25.473L6.68105 28.0719C8.02756 25.464 10.1963 23.9572 12.0756 22.652C14.1729 21.1955 16.1538 19.8198 16.1538 17.5V25.1862ZM22.9244 22.652C24.8037 23.9572 26.9723 25.464 28.3189 28.0718L20.0736 25.4729C19.6727 25.3466 19.2619 25.2515 18.8462 25.1861V17.5C18.8462 19.8198 20.8271 21.1955 22.9244 22.652ZM6.63376 6.83594C5.98285 5.54401 5.53332 3.98412 5.41567 2.05078H29.5842C29.4666 3.98412 29.0172 5.54401 28.3662 6.83594H6.63376Z" fill="#424585"/>
</svg>
