<svg width="26" height="28" viewBox="0 0 26 28" fill="none" xmlns="http://www.w3.org/2000/svg">
<path d="M12.3157 0.992821C10.1173 1.01898 5.39093 1.37509 2.74738 3.76573C0.780986 5.68634 0.0944165 8.52591 0.0139457 12.0372C-0.0528279 15.5358 -0.133299 22.1061 6.29152 23.895V26.6198C6.29152 26.6198 6.25129 27.7101 6.98237 27.9337C7.88296 28.2147 8.39575 27.3759 9.25182 26.4747L10.8484 24.695C15.2443 25.0553 18.6113 24.225 18.9991 24.1018C19.8911 23.8208 24.9154 23.1879 25.7363 16.6168C26.5787 9.83051 25.3263 5.5547 23.0654 3.62058H23.0517C22.3694 3.00119 19.6274 1.03164 13.5014 1.0097C13.5014 1.0097 13.0468 0.979319 12.3157 0.991977V0.992821ZM12.391 2.90078C13.0151 2.89656 13.3944 2.92272 13.3944 2.92272C18.5796 2.93622 21.0545 4.47456 21.6383 4.99269C23.5422 6.60107 24.5233 10.4558 23.805 16.1214C23.1228 21.6149 19.0479 21.9626 18.2937 22.1997C17.9726 22.301 15.0072 23.0216 11.2713 22.7845C11.2713 22.7845 8.48906 26.0941 7.61929 26.9464C7.48146 27.0958 7.32052 27.1396 7.21779 27.1177C7.07055 27.0823 7.02603 26.9025 7.03459 26.6561L7.06113 22.1339C1.61223 20.6487 1.93326 15.0447 1.99147 12.1173C2.05825 9.19002 2.61555 6.79516 4.27462 5.17327C6.50811 3.18262 10.5214 2.91428 12.3893 2.90078H12.391ZM12.802 5.82726C12.7571 5.82682 12.7126 5.83512 12.671 5.85171C12.6295 5.86829 12.5916 5.89282 12.5597 5.92388C12.5278 5.95495 12.5024 5.99193 12.4851 6.0327C12.4678 6.07347 12.4588 6.11722 12.4587 6.16143C12.4587 6.35045 12.6145 6.49981 12.802 6.49981C13.6507 6.4839 14.4943 6.63379 15.2841 6.94083C16.0738 7.24788 16.7941 7.706 17.4033 8.28878C18.6472 9.47946 19.2533 11.0794 19.2764 13.1713C19.2764 13.3561 19.4279 13.5097 19.6197 13.5097V13.4962C19.7101 13.4964 19.7969 13.4614 19.8612 13.3988C19.9255 13.3362 19.9621 13.2511 19.963 13.162C20.0046 12.1774 19.8426 11.1947 19.4869 10.2737C19.1312 9.35265 18.5892 8.51254 17.8939 7.80441C16.5387 6.49897 14.8214 5.82642 12.802 5.82642V5.82726ZM8.28959 6.60107C8.04728 6.56617 7.80015 6.61412 7.58933 6.73694H7.57135C7.0819 7.01974 6.64098 7.37719 6.26498 7.79597C5.95252 8.15208 5.78302 8.5124 5.7385 8.85923C5.71196 9.06597 5.72994 9.27272 5.79243 9.47018L5.81469 9.48368C6.16654 10.5031 6.62625 11.4836 7.18783 12.4068C7.91123 13.7038 8.80149 14.9032 9.83652 15.9755L9.86734 16.0193L9.91613 16.0548L9.94695 16.0902L9.9829 16.1206C11.0746 17.1438 12.2944 18.0255 13.6126 18.7441C15.1193 19.5525 16.0336 19.9348 16.5824 20.0935V20.1019C16.7433 20.15 16.8897 20.1719 17.0369 20.1719C17.5046 20.1382 17.9473 19.951 18.2945 19.6403C18.7174 19.2696 19.076 18.8332 19.356 18.3484V18.3399C19.6189 17.8522 19.5298 17.3906 19.1506 17.0784C18.3911 16.424 17.5698 15.8427 16.6979 15.3426C16.1141 15.0303 15.5208 15.2194 15.2803 15.5358L14.7675 16.1729C14.5047 16.4894 14.027 16.4455 14.027 16.4455L14.0133 16.4539C10.4512 15.5569 9.50094 12.0017 9.50094 12.0017C9.50094 12.0017 9.45642 11.5182 9.78601 11.2718L10.4281 10.7621C10.7354 10.5157 10.9494 9.93177 10.6198 9.35542C10.1159 8.49481 9.52756 7.68505 8.86316 6.93777C8.71791 6.7616 8.51414 6.64174 8.28788 6.59939L8.28959 6.60107ZM13.3944 7.60357C12.9398 7.60357 12.9398 8.28034 13.3986 8.28034C13.9639 8.28938 14.5218 8.40813 15.0404 8.62981C15.5591 8.85149 16.0284 9.17175 16.4214 9.57229C16.78 9.96215 17.0555 10.419 17.2316 10.9157C17.4078 11.4125 17.481 11.939 17.447 12.4642C17.4486 12.553 17.4854 12.6378 17.5495 12.7002C17.6137 12.7627 17.7001 12.7979 17.7903 12.7983L17.804 12.8161C17.8948 12.8154 17.9817 12.7795 18.046 12.7162C18.1102 12.6529 18.1466 12.5672 18.1473 12.4777C18.1781 11.1368 17.7552 10.0119 16.9256 9.1107C16.0918 8.20946 14.9284 7.70399 13.4431 7.60357H13.3944ZM13.9568 9.42292C13.4885 9.40942 13.4705 10.0997 13.9345 10.1132C15.0628 10.1706 15.6107 10.7326 15.6826 11.8887C15.6842 11.9764 15.7205 12.0601 15.7839 12.1218C15.8473 12.1834 15.9326 12.2182 16.0216 12.2186H16.0353C16.0811 12.2167 16.126 12.2058 16.1675 12.1865C16.2089 12.1673 16.2461 12.1401 16.2768 12.1066C16.3075 12.073 16.3311 12.0338 16.3462 11.9912C16.3613 11.9485 16.3677 11.9034 16.3649 11.8583C16.2845 10.3512 15.4506 9.50225 13.9705 9.42377H13.9568V9.42292Z" fill="#414141"/>
</svg>
