<svg width="26" height="28" viewBox="0 0 26 28" fill="none" xmlns="http://www.w3.org/2000/svg">
<path d="M12.3157 0.992699C10.1173 1.01886 5.39093 1.37496 2.74738 3.7656C0.780986 5.68621 0.0944165 8.52578 0.0139457 12.0371C-0.0528279 15.5357 -0.133299 22.1059 6.29152 23.8949V26.6197C6.29152 26.6197 6.25129 27.71 6.98237 27.9336C7.88296 28.2146 8.39575 27.3758 9.25182 26.4746L10.8484 24.6949C15.2443 25.0552 18.6113 24.2248 18.9991 24.1016C19.8911 23.8206 24.9154 23.1877 25.7363 16.6167C26.5787 9.83038 25.3263 5.55457 23.0654 3.62046H23.0517C22.3694 3.00107 19.6274 1.03152 13.5014 1.00958C13.5014 1.00958 13.0468 0.979197 12.3157 0.991855V0.992699ZM12.391 2.90065C13.0151 2.89643 13.3944 2.92259 13.3944 2.92259C18.5796 2.93609 21.0545 4.47444 21.6383 4.99257C23.5422 6.60095 24.5233 10.4557 23.805 16.1213C23.1228 21.6148 19.0479 21.9625 18.2937 22.1996C17.9726 22.3009 15.0072 23.0215 11.2713 22.7844C11.2713 22.7844 8.48906 26.094 7.61929 26.9463C7.48146 27.0956 7.32052 27.1395 7.21779 27.1176C7.07055 27.0821 7.02603 26.9024 7.03459 26.656L7.06113 22.1338C1.61223 20.6486 1.93326 15.0446 1.99147 12.1172C2.05825 9.1899 2.61555 6.79504 4.27462 5.17315C6.50811 3.1825 10.5214 2.91415 12.3893 2.90065H12.391ZM12.802 5.82714C12.7571 5.82669 12.7126 5.835 12.671 5.85158C12.6295 5.86817 12.5916 5.8927 12.5597 5.92376C12.5278 5.95483 12.5024 5.99181 12.4851 6.03258C12.4678 6.07335 12.4588 6.1171 12.4587 6.1613C12.4587 6.35033 12.6145 6.49969 12.802 6.49969C13.6507 6.48378 14.4943 6.63367 15.2841 6.94071C16.0738 7.24775 16.7941 7.70588 17.4033 8.28866C18.6472 9.47934 19.2533 11.0793 19.2764 13.1712C19.2764 13.356 19.4279 13.5096 19.6197 13.5096V13.4961C19.7101 13.4963 19.7969 13.4613 19.8612 13.3987C19.9255 13.3361 19.9621 13.251 19.963 13.1619C20.0046 12.1773 19.8426 11.1946 19.4869 10.2735C19.1312 9.35252 18.5892 8.51242 17.8939 7.80429C16.5387 6.49885 14.8214 5.82629 12.802 5.82629V5.82714ZM8.28959 6.60095C8.04728 6.56605 7.80015 6.614 7.58933 6.73681H7.57135C7.0819 7.01962 6.64098 7.37706 6.26498 7.79585C5.95252 8.15196 5.78302 8.51228 5.7385 8.85911C5.71196 9.06585 5.72994 9.27259 5.79243 9.47006L5.81469 9.48356C6.16654 10.5029 6.62625 11.4835 7.18783 12.4067C7.91123 13.7036 8.80149 14.9031 9.83652 15.9753L9.86734 16.0192L9.91613 16.0547L9.94695 16.0901L9.9829 16.1205C11.0746 17.1437 12.2944 18.0254 13.6126 18.744C15.1193 19.5524 16.0336 19.9347 16.5824 20.0933V20.1018C16.7433 20.1499 16.8897 20.1718 17.0369 20.1718C17.5046 20.138 17.9473 19.9509 18.2945 19.6402C18.7174 19.2695 19.076 18.8331 19.356 18.3482V18.3398C19.6189 17.8521 19.5298 17.3905 19.1506 17.0782C18.3911 16.4238 17.5698 15.8426 16.6979 15.3424C16.1141 15.0302 15.5208 15.2192 15.2803 15.5357L14.7675 16.1728C14.5047 16.4892 14.027 16.4454 14.027 16.4454L14.0133 16.4538C10.4512 15.5568 9.50094 12.0016 9.50094 12.0016C9.50094 12.0016 9.45642 11.5181 9.78601 11.2717L10.4281 10.762C10.7354 10.5156 10.9494 9.93165 10.6198 9.35529C10.1159 8.49469 9.52756 7.68493 8.86316 6.93765C8.71791 6.76148 8.51414 6.64162 8.28788 6.59927L8.28959 6.60095ZM13.3944 7.60345C12.9398 7.60345 12.9398 8.28022 13.3986 8.28022C13.9639 8.28926 14.5218 8.40801 15.0404 8.62969C15.5591 8.85137 16.0284 9.17163 16.4214 9.57216C16.78 9.96203 17.0555 10.4189 17.2316 10.9156C17.4078 11.4124 17.481 11.9389 17.447 12.4641C17.4486 12.5529 17.4854 12.6377 17.5495 12.7001C17.6137 12.7626 17.7001 12.7978 17.7903 12.7982L17.804 12.8159C17.8948 12.8153 17.9817 12.7794 18.046 12.7161C18.1102 12.6528 18.1466 12.5671 18.1473 12.4776C18.1781 11.1367 17.7552 10.0118 16.9256 9.11058C16.0918 8.20934 14.9284 7.70387 13.4431 7.60345H13.3944ZM13.9568 9.4228C13.4885 9.4093 13.4705 10.0996 13.9345 10.1131C15.0628 10.1705 15.6107 10.7325 15.6826 11.8885C15.6842 11.9763 15.7205 12.06 15.7839 12.1216C15.8473 12.1833 15.9326 12.2181 16.0216 12.2185H16.0353C16.0811 12.2166 16.126 12.2057 16.1675 12.1864C16.2089 12.1672 16.2461 12.14 16.2768 12.1065C16.3075 12.0729 16.3311 12.0337 16.3462 11.991C16.3613 11.9484 16.3677 11.9032 16.3649 11.8582C16.2845 10.351 15.4506 9.50212 13.9705 9.42365H13.9568V9.4228Z" fill="#8387DB"/>
</svg>
