<svg width="28" height="32" viewBox="0 0 28 32" fill="none" xmlns="http://www.w3.org/2000/svg">
<path d="M23.9093 6.05947C22.6199 4.7639 21.0843 3.73677 19.392 3.03793C17.6998 2.33909 15.8848 1.98251 14.0527 1.98898C6.37594 1.98898 0.119538 8.21546 0.112506 15.8594C0.112506 18.3077 0.755901 20.6894 1.97062 22.7982L0 29.9889L7.39025 28.0604C9.43471 29.168 11.7251 29.7486 14.0527 29.7491H14.0598C21.7383 29.7491 27.993 23.5227 28 15.8717C28.0018 14.0483 27.6411 12.2425 26.9387 10.5585C26.2363 8.87445 25.2062 7.34542 23.9076 6.05947H23.9093ZM14.0527 27.4007C11.9766 27.4013 9.9387 26.8452 8.15319 25.7907L7.73129 25.5387L3.34706 26.6832L4.51783 22.4254L4.2436 21.9862C3.08303 20.1492 2.46924 18.0225 2.47338 15.8524C2.47338 9.50695 7.67152 4.33047 14.0598 4.33047C15.5817 4.32775 17.089 4.62495 18.495 5.20493C19.901 5.78491 21.1777 6.63619 22.2516 7.70971C23.3293 8.77904 24.1836 10.0502 24.7653 11.4499C25.347 12.8495 25.6446 14.35 25.6409 15.8647C25.6338 22.2329 20.4357 27.4007 14.0527 27.4007ZM20.4076 18.7662C20.0613 18.5929 18.3508 17.7547 18.0291 17.6357C17.7092 17.5219 17.4754 17.4624 17.2469 17.8089C17.0131 18.1537 16.345 18.9394 16.1446 19.1652C15.9442 19.3979 15.7368 19.4242 15.3887 19.2527C15.0424 19.0777 13.9191 18.7137 12.5902 17.5289C11.553 16.6102 10.8586 15.4727 10.6512 15.1279C10.4508 14.7814 10.6318 14.5959 10.8059 14.4227C10.9588 14.2687 11.1522 14.0167 11.3262 13.8172C11.502 13.6177 11.56 13.4707 11.6743 13.2397C11.7885 13.0052 11.734 12.8057 11.6479 12.6324C11.56 12.4592 10.8656 10.7495 10.5721 10.06C10.2908 9.3792 10.0043 9.4737 9.7898 9.46495C9.5894 9.4527 9.3556 9.4527 9.1218 9.4527C8.94524 9.45707 8.77149 9.49773 8.61146 9.57211C8.45144 9.64649 8.30858 9.753 8.19186 9.88495C7.87192 10.2315 6.97715 11.0697 6.97715 12.7794C6.97715 14.4892 8.22526 16.1324 8.40105 16.3652C8.57333 16.5979 10.8516 20.0962 14.3481 21.6012C15.1743 21.9599 15.8247 22.1717 16.3327 22.3327C17.1678 22.5987 17.9219 22.5584 18.5231 22.4727C19.1911 22.3712 20.5816 21.6327 20.8752 20.8224C21.1635 20.0104 21.1635 19.3174 21.0756 19.1722C20.9894 19.0252 20.7556 18.9394 20.4076 18.7662Z" fill="#414141"/>
</svg>
